<?xml version="1.0" encoding="utf-8"?>
<!-- Generator: Adobe Illustrator 24.3.0, SVG Export Plug-In . SVG Version: 6.00 Build 0)  -->
<svg version="1.1" id="圖層_1" xmlns="http://www.w3.org/2000/svg" xmlns:xlink="http://www.w3.org/1999/xlink" x="0px" y="0px"
	 viewBox="0 0 148 148" style="enable-background:new 0 0 148 148;" xml:space="preserve">
<style type="text/css">
	.st0{fill:#23170C;}
	.st1{fill:#FFEEA9;}
	.st2{fill:#FFFFFF;}
	.st3{clip-path:url(#SVGID_2_);}
	.st4{fill:#CCFFCE;stroke:#000000;stroke-width:2;stroke-miterlimit:10;}
	.st5{fill:#4CF5FF;}
	.st6{fill:#E272DE;}
	.st7{fill:#4CFFA4;}
	.st8{fill:#CB7F82;}
	.st9{fill:none;stroke:#000000;stroke-linecap:round;stroke-linejoin:round;stroke-miterlimit:10;}
	.st10{clip-path:url(#SVGID_4_);}
	.st11{fill:#B6D9FF;}
	.st12{fill:#8AB1FF;}
	.st13{fill:#FCCAFF;}
	.st14{fill:#E895D5;}
	.st15{clip-path:url(#SVGID_6_);}
	.st16{clip-path:url(#SVGID_8_);}
	.st17{fill:#5FD0F2;}
	.st18{clip-path:url(#SVGID_10_);}
	.st19{clip-path:url(#SVGID_12_);}
	.st20{clip-path:url(#SVGID_14_);}
	.st21{clip-path:url(#SVGID_16_);}
	.st22{fill:#52DEFF;stroke:#000000;stroke-width:2;stroke-miterlimit:10;}
	.st23{fill:#7C7C7C;}
	.st24{clip-path:url(#SVGID_18_);}
	.st25{fill:#CCFFCE;}
	.st26{clip-path:url(#SVGID_20_);}
	.st27{clip-path:url(#SVGID_22_);}
	.st28{opacity:0.4;fill:#E895D5;stroke:#000000;stroke-width:2;stroke-miterlimit:10;}
	.st29{clip-path:url(#SVGID_26_);}
	.st30{clip-path:url(#SVGID_30_);}
	.st31{opacity:0.4;fill:#52DEFF;stroke:#000000;stroke-width:2;stroke-miterlimit:10;}
	.st32{clip-path:url(#SVGID_34_);}
	.st33{fill:#FAD424;}
	.st34{clip-path:url(#SVGID_36_);fill:#23170C;}
	.st35{clip-path:url(#SVGID_36_);}
	.st36{opacity:0;fill:#23170C;}
	.st37{opacity:3.225800e-02;fill:#23170C;}
	.st38{opacity:6.451600e-02;fill:#23170C;}
	.st39{opacity:9.677400e-02;fill:#23170C;}
	.st40{opacity:0.129;fill:#23170C;}
	.st41{opacity:0.1613;fill:#23170C;}
	.st42{opacity:0.1935;fill:#23170C;}
	.st43{opacity:0.2258;fill:#23170C;}
	.st44{opacity:0.2581;fill:#23170C;}
	.st45{opacity:0.2903;fill:#23170C;}
	.st46{opacity:0.3226;fill:#23170C;}
	.st47{opacity:0.3548;fill:#23170C;}
	.st48{opacity:0.3871;fill:#23170C;}
	.st49{opacity:0.4194;fill:#23170C;}
	.st50{opacity:0.4516;fill:#23170C;}
	.st51{opacity:0.4839;fill:#23170C;}
	.st52{opacity:0.5161;fill:#23170C;}
	.st53{opacity:0.5484;fill:#23170C;}
	.st54{opacity:0.5806;fill:#23170C;}
	.st55{opacity:0.6129;fill:#23170C;}
	.st56{opacity:0.6452;fill:#23170C;}
	.st57{opacity:0.6774;fill:#23170C;}
	.st58{opacity:0.7097;fill:#23170C;}
	.st59{opacity:0.7419;fill:#23170C;}
	.st60{opacity:0.7742;fill:#23170C;}
	.st61{opacity:0.8065;fill:#23170C;}
	.st62{opacity:0.8387;fill:#23170C;}
	.st63{opacity:0.871;fill:#23170C;}
	.st64{opacity:0.9032;fill:#23170C;}
	.st65{opacity:0.9355;fill:#23170C;}
	.st66{opacity:0.9677;fill:#23170C;}
	.st67{clip-path:url(#SVGID_38_);fill:#23170C;}
	.st68{clip-path:url(#SVGID_38_);}
	.st69{clip-path:url(#SVGID_40_);fill:#23170C;}
	.st70{clip-path:url(#SVGID_40_);}
	.st71{clip-path:url(#SVGID_42_);fill:#23170C;}
	.st72{clip-path:url(#SVGID_42_);}
	.st73{clip-path:url(#SVGID_44_);fill:#23170C;}
	.st74{clip-path:url(#SVGID_44_);}
	.st75{clip-path:url(#SVGID_46_);fill:#23170C;}
	.st76{clip-path:url(#SVGID_46_);}
	.st77{clip-path:url(#SVGID_48_);fill:#23170C;}
	.st78{clip-path:url(#SVGID_48_);}
	.st79{clip-path:url(#SVGID_50_);fill:#23170C;}
	.st80{clip-path:url(#SVGID_50_);}
	.st81{fill:#36332F;}
	.st82{fill:#1E1B16;}
	.st83{fill:#FFE36C;}
	.st84{opacity:0.5;clip-path:url(#SVGID_52_);}
	.st85{opacity:0.5;}
	.st86{clip-path:url(#SVGID_54_);fill:#FFE36C;}
	.st87{clip-path:url(#SVGID_54_);}
	.st88{clip-path:url(#SVGID_56_);fill:#FFE36C;}
	.st89{clip-path:url(#SVGID_56_);}
	.st90{clip-path:url(#SVGID_58_);fill:#FFE36C;}
	.st91{clip-path:url(#SVGID_58_);}
	.st92{opacity:0.5;clip-path:url(#SVGID_60_);}
	.st93{clip-path:url(#SVGID_62_);fill:#FFE36C;}
	.st94{clip-path:url(#SVGID_62_);}
	.st95{clip-path:url(#SVGID_64_);fill:#FFE36C;}
	.st96{clip-path:url(#SVGID_64_);}
	.st97{clip-path:url(#SVGID_66_);fill:#FFE36C;}
	.st98{clip-path:url(#SVGID_66_);}
	.st99{opacity:0.5;clip-path:url(#SVGID_68_);}
	.st100{clip-path:url(#SVGID_70_);fill:#FFE36C;}
	.st101{clip-path:url(#SVGID_70_);}
	.st102{clip-path:url(#SVGID_72_);fill:#FFE36C;}
	.st103{clip-path:url(#SVGID_72_);}
	.st104{clip-path:url(#SVGID_74_);fill:#FFE36C;}
	.st105{clip-path:url(#SVGID_74_);}
	.st106{fill:#463532;}
	.st107{clip-path:url(#SVGID_76_);fill:#23170C;}
	.st108{clip-path:url(#SVGID_76_);}
	.st109{clip-path:url(#SVGID_76_);fill:#FFEEA9;}
	.st110{clip-path:url(#SVGID_78_);fill:#23170C;}
	.st111{clip-path:url(#SVGID_78_);fill:#FFEEA9;}
	.st112{clip-path:url(#SVGID_80_);fill:#23170C;}
	.st113{clip-path:url(#SVGID_80_);}
	.st114{clip-path:url(#SVGID_82_);fill:#23170C;}
	.st115{clip-path:url(#SVGID_82_);}
	.st116{clip-path:url(#SVGID_84_);fill:#23170C;}
	.st117{clip-path:url(#SVGID_84_);}
	.st118{clip-path:url(#SVGID_86_);fill:#23170C;}
	.st119{clip-path:url(#SVGID_86_);}
	.st120{fill:#00FF79;}
</style>
<g id="nev-1">
</g>
<g>
	<path class="st0" d="M133.4,95.1c1-2.7,3.7-4.2,6.4-3.7l6.2,1.2l2-11.6l-6.2-1c-2.7-0.5-4.9-3-4.9-5.7v-0.2v-0.2c0-3,2-5.2,4.9-5.7
		l6.2-1l-2-11.6l-6.2,1.2c-2.7,0.5-5.7-1-6.4-3.7c0-0.2-0.2-0.2-0.2-0.5c-1-2.7,0-5.7,2.5-7.1l5.4-3.2l-5.9-10.1l-5.4,3.2
		c-2.5,1.5-5.7,1-7.4-1.2c0-0.2-0.2-0.2-0.5-0.5c-2-2.2-2-5.4,0-7.6l3.9-4.7l-8.9-7.6l-3.9,4.9c-1.7,2.2-4.9,2.7-7.4,1.2
		c-0.2,0-0.2-0.2-0.5-0.2c-2.5-1.5-3.5-4.4-2.5-7.1l2.2-5.9L93.7,2.6l-2.2,5.9c-1,2.7-3.7,4.2-6.4,3.7c-0.2,0-0.5,0-0.5,0
		c-2.7-0.5-4.9-3-4.9-5.7V0.2H68.3v6.4c0,3-2,5.2-4.9,5.7c-0.2,0-0.5,0-0.5,0c-2.7,0.5-5.4-1-6.4-3.7l-2.2-5.9L43.2,6.6l2.2,5.9
		c1,2.7,0,5.7-2.5,7.1c-0.2,0-0.2,0.2-0.5,0.2c-2.5,1.5-5.7,1-7.4-1.2l-3.9-4.9l-8.9,7.6l3.9,4.7c1.7,2.2,2,5.4,0,7.6
		c-0.2,0.2-0.2,0.2-0.5,0.5c-1.7,2.2-4.9,2.7-7.4,1.2l-5.4-3.2L6.9,42.3l5.4,3.2c2.5,1.5,3.5,4.4,2.5,7.1c0,0.2-0.2,0.2-0.2,0.5
		c-1,2.7-3.7,4.2-6.4,3.7L2,55.6L0,67.2l6.2,1c2.7,0.5,4.9,3,4.9,5.7v0.2v0.2c0,3-2,5.2-4.9,5.7L0,81l2,11.6l6.2-1.2
		c2.7-0.5,5.7,1,6.4,3.7c0,0.2,0.2,0.2,0.2,0.5c1,2.7,0,5.7-2.5,7.1l-5.4,3.2l5.9,10.1l5.4-3.2c2.5-1.5,5.7-1,7.4,1.2
		c0.2,0.2,0.2,0.2,0.5,0.5c1.7,2.2,2,5.4,0,7.6l-3.9,4.7l8.9,7.6l3.9-4.9c1.7-2.2,4.9-2.7,7.4-1.2c0.2,0,0.2,0.2,0.5,0.2
		c2.5,1.5,3.5,4.4,2.5,7.1l-2.2,5.7l11.1,3.9l2.2-5.9c1-2.7,3.7-4.2,6.4-3.7c0.2,0,0.5,0,0.5,0c2.7,0.5,4.9,3,4.9,5.7v6.4h11.8v-6.4
		c0-3,2-5.2,4.9-5.7c0.2,0,0.5,0,0.5,0c2.7-0.5,5.4,1.2,6.4,3.7l2.2,5.9l11.1-3.9l-2.5-5.7c-1-2.7,0-5.7,2.5-7.1
		c0.2,0,0.2-0.2,0.5-0.2c2.5-1.5,5.7-1,7.4,1.2l3.9,4.9l8.9-7.6l-3.9-4.7c-1.7-2.2-1.7-5.4,0-7.6c0.2-0.2,0.2-0.2,0.5-0.5
		c1.7-2.2,4.9-2.7,7.4-1.2l5.4,3.2l5.9-10.1l-5.4-3.2c-2.5-1.5-3.5-4.4-2.5-7.1C133.2,95.6,133.4,95.3,133.4,95.1z M114.2,38.4
		l-23.7,21c-2.7-3-6.2-5.4-10.4-6.7c-0.5-0.2-1.2-0.2-1.7-0.5l6.4-30.8C96.4,23.6,106.5,29.7,114.2,38.4z M74,89.7
		c-2.2,0-4.2-0.5-6.2-1.2c-3.7-1.7-6.7-4.7-8.4-8.4c-0.7-2-1.2-3.9-1.2-6.2c0-2.2,0.5-4.2,1.2-6.2c1.5-3.7,4.7-6.7,8.4-8.4
		c2-0.7,3.9-1.2,6.2-1.2s4.2,0.5,6.2,1.2c3.7,1.5,6.9,4.7,8.4,8.4c0.7,2,1.2,3.9,1.2,6.2c0,2.2-0.5,4.2-1.2,6.2
		c-1.7,3.7-4.7,6.9-8.4,8.4C78.4,89.2,76.2,89.7,74,89.7z M63.4,21.4l6.4,30.8c-0.5,0-1.2,0.2-1.7,0.5c-3.9,1.2-7.6,3.5-10.4,6.7
		l-23.7-21C41.5,29.7,51.8,23.6,63.4,21.4z M20.8,67.7c0.5-3.7,1.2-7.4,2.5-10.8L53,66.7c0,0.2-0.2,0.5-0.2,0.7
		c-0.5,2-0.7,3.9-0.7,6.2c0,2.2,0.2,4.2,0.7,6.2c0,0.2,0.2,0.5,0.2,0.7l-29.8,9.9c-1.2-3.5-2-7.1-2.5-10.8c-0.2-2-0.5-3.9-0.5-6.2
		C20.5,71.7,20.5,69.7,20.8,67.7z M34.1,109.4l23.7-21c2.7,3,6.2,5.4,10.4,6.7c0.5,0.2,1.2,0.2,1.7,0.5l-6.4,30.8
		C51.8,123.9,41.5,118,34.1,109.4z M84.8,126.4l-6.4-30.8c0.5,0,1.2-0.2,1.7-0.2c3.9-1.2,7.6-3.5,10.4-6.7l23.7,21
		C106.5,117.8,96.4,123.9,84.8,126.4z M127.2,80c-0.5,3.7-1.2,7.4-2.5,10.8L95,81c0-0.2,0.2-0.5,0.2-0.7c0.5-2,0.7-3.9,0.7-6.2
		c0-2.2-0.2-4.2-0.7-6.2c0-0.2-0.2-0.5-0.2-0.7l29.8-9.9c1.2,3.5,2,7.1,2.5,10.8c0.2,2,0.5,4.2,0.5,6.2
		C127.7,75.8,127.5,78.1,127.2,80z"/>
	<g>
		<circle class="st0" cx="74" cy="74" r="54"/>
	</g>
</g>
<g>
	<path class="st33" d="M74,131.5c-31.7,0-57.5-25.8-57.5-57.5S42.3,16.5,74,16.5s57.5,25.8,57.5,57.5S105.7,131.5,74,131.5z
		 M74,23.5c-27.8,0-50.5,22.7-50.5,50.5s22.7,50.5,50.5,50.5s50.5-22.7,50.5-50.5S101.8,23.5,74,23.5z"/>
</g>
<path class="st120" d="M121.6,38.9c2.5,2.5,2.5,6.5,0,9L70.4,99.1c-2.5,2.5-6.5,2.5-9,0L35.8,73.5c-2.5-2.5-2.5-6.5,0-9
	c2.5-2.5,6.6-2.5,9.1,0l20.9,21.1l46.9-46.7C115.1,36.4,119.1,36.4,121.6,38.9L121.6,38.9z"/>
</svg>
