<?xml version="1.0" encoding="utf-8"?>
<!-- Generator: Adobe Illustrator 22.1.0, SVG Export Plug-In . SVG Version: 6.00 Build 0)  -->
<svg version="1.1" id="Layer_1" xmlns="http://www.w3.org/2000/svg" xmlns:xlink="http://www.w3.org/1999/xlink" x="0px" y="0px"
	 viewBox="0 0 60.1 60.2" style="enable-background:new 0 0 60.1 60.2;" xml:space="preserve">
<style type="text/css">
	.st0{fill:#23170C;}
</style>
<path class="st0" d="M54.1,38.7c0.4-1.1,1.5-1.7,2.6-1.5l2.5,0.5L60,33l-2.5-0.4c-1.1-0.2-2-1.2-2-2.3v-0.1v-0.1
	c0-1.2,0.8-2.1,2-2.3l2.5-0.4l-0.8-4.7L56.8,23c-1.1,0.2-2.3-0.4-2.6-1.5c0-0.1-0.1-0.1-0.1-0.2c-0.4-1.1,0-2.3,1-2.9l2.2-1.3
	L54.9,13l-2.2,1.3c-1,0.6-2.3,0.4-3-0.5c0-0.1-0.1-0.1-0.2-0.2c-0.8-0.9-0.8-2.2,0-3.1l1.6-1.9l-3.6-3.1l-1.6,2
	c-0.7,0.9-2,1.1-3,0.5c-0.1,0-0.1-0.1-0.2-0.1c-1-0.6-1.4-1.8-1-2.9l0.9-2.4L38.1,1l-0.9,2.4c-0.4,1.1-1.5,1.7-2.6,1.5
	c-0.1,0-0.2,0-0.2,0c-1.1-0.2-2-1.2-2-2.3V0h-4.7v2.6c0,1.2-0.8,2.1-2,2.3c-0.1,0-0.2,0-0.2,0c-1.1,0.2-2.2-0.4-2.6-1.5L22,1
	l-4.5,1.6L18.4,5c0.4,1.1,0,2.3-1,2.9c-0.1,0-0.1,0.1-0.2,0.1c-1,0.6-2.3,0.4-3-0.5l-1.6-2L8.9,8.6l1.6,1.9c0.7,0.9,0.8,2.2,0,3.1
	c-0.1,0.1-0.1,0.1-0.2,0.2c-0.7,0.9-2,1.1-3,0.5L5.2,13l-2.4,4.1L5,18.4c1,0.6,1.4,1.8,1,2.9c0,0,0,0.1,0,0.2
	c-0.4,1.1-1.5,1.7-2.6,1.5l-2.5-0.5L0,27.2l2.5,0.4c1.1,0.2,2,1.2,2,2.3V30v0.1c0,1.2-0.8,2.1-2,2.3L0,33l0.8,4.7l2.5-0.5
	C4.5,37,5.6,37.6,6,38.7c0,0.1,0.1,0.1,0.1,0.2c0.4,1.1,0,2.3-1,2.9l-2.2,1.3l2.4,4.1l2.2-1.3c1-0.6,2.3-0.4,3,0.5
	c0.1,0.1,0.1,0.1,0.2,0.2c0.7,0.9,0.8,2.2,0,3.1l-1.6,1.9l3.6,3.1l1.6-2c0.7-0.9,2-1.1,3-0.5c0.1,0,0.1,0.1,0.2,0.1
	c1,0.6,1.4,1.8,1,2.9l-0.9,2.4l4.5,1.6l0.9-2.4c0.4-1.1,1.5-1.7,2.6-1.5c0.1,0,0.2,0,0.2,0c1.1,0.2,2,1.2,2,2.3v2.6h4.8v-2.6
	c0-1.2,0.8-2.1,2-2.3c0.1,0,0.2,0,0.2,0c1.1-0.2,2.2,0.5,2.6,1.5l0.9,2.4l4.5-1.6l-0.9-2.4c-0.4-1.1,0-2.3,1-2.9
	c0.1,0,0.1-0.1,0.2-0.1c1-0.6,2.3-0.4,3,0.5l1.6,2l3.6-3.1l-1.6-1.9c-0.7-0.9-0.7-2.2,0-3.1c0.1-0.1,0.1-0.1,0.2-0.2
	c0.7-0.9,2-1.1,3-0.5l2.2,1.3l2.4-4.1l-2.2-1.3c-1-0.6-1.4-1.8-1-2.9C54.1,38.9,54.1,38.8,54.1,38.7z M46.3,15.7l-9.6,8.5
	c-1.1-1.2-2.5-2.2-4.2-2.7c-0.2-0.1-0.5-0.1-0.7-0.2l2.6-12.5C39.1,9.7,43.2,12.2,46.3,15.7z M30,36.5c-0.9,0-1.7-0.2-2.5-0.5
	c-1.5-0.7-2.7-1.9-3.4-3.4c-0.3-0.8-0.5-1.6-0.5-2.5s0.2-1.7,0.5-2.5c0.6-1.5,1.9-2.7,3.4-3.4c0.8-0.3,1.6-0.5,2.5-0.5
	s1.7,0.2,2.5,0.5c1.5,0.6,2.8,1.9,3.4,3.4c0.3,0.8,0.5,1.6,0.5,2.5s-0.2,1.7-0.5,2.5c-0.7,1.5-1.9,2.8-3.4,3.4
	C31.8,36.3,30.9,36.5,30,36.5z M25.7,8.8l2.6,12.5c-0.2,0-0.5,0.1-0.7,0.2c-1.6,0.5-3.1,1.4-4.2,2.7l-9.6-8.5
	C16.8,12.2,21,9.7,25.7,8.8z M8.4,27.6c0.2-1.5,0.5-3,1-4.4l12.1,4c0,0.1-0.1,0.2-0.1,0.3c-0.2,0.8-0.3,1.6-0.3,2.5s0.1,1.7,0.3,2.5
	c0,0.1,0.1,0.2,0.1,0.3L9.4,37c-0.5-1.4-0.8-2.9-1-4.4c-0.1-0.8-0.2-1.6-0.2-2.5C8.3,29.2,8.3,28.4,8.4,27.6z M13.8,44.5l9.6-8.5
	c1.1,1.2,2.5,2.2,4.2,2.7c0.2,0.1,0.5,0.1,0.7,0.2l-2.6,12.5C21,50.4,16.9,48,13.8,44.5z M34.4,51.4l-2.6-12.5
	c0.2,0,0.5-0.1,0.7-0.1c1.6-0.5,3.1-1.4,4.2-2.7l9.6,8.5C43.2,47.9,39.1,50.4,34.4,51.4z M51.6,32.6c-0.2,1.5-0.5,3-1,4.4l-12.1-4
	c0-0.1,0.1-0.2,0.1-0.3c0.2-0.8,0.3-1.6,0.3-2.5s-0.1-1.7-0.3-2.5c0-0.1-0.1-0.2-0.1-0.3l12.1-4c0.5,1.4,0.8,2.9,1,4.4
	c0.1,0.8,0.2,1.7,0.2,2.5C51.8,30.9,51.7,31.8,51.6,32.6z"/>
</svg>
