<?xml version="1.0" encoding="utf-8"?>
<!-- Generator: Adobe Illustrator 22.1.0, SVG Export Plug-In . SVG Version: 6.00 Build 0)  -->
<svg version="1.1" id="Layer_1" xmlns="http://www.w3.org/2000/svg" xmlns:xlink="http://www.w3.org/1999/xlink" x="0px" y="0px"
	 viewBox="0 0 60.1 60.2" style="enable-background:new 0 0 60.1 60.2;" xml:space="preserve">
<style type="text/css">
	.st0{fill:#23170C;}
</style>
<path class="st0" d="M55.6,30.1c0-0.4,0-0.9,0-1.3c0.6-0.2,2.2-0.7,3.9-1.2c0-0.1,0-0.2,0-0.3c-0.1-0.8-0.2-1.5-0.3-2.3
	c-1.8,0-3.4-0.1-4.1-0.2c-0.2-0.9-0.4-1.7-0.7-2.5c0.5-0.4,2-1.3,3.5-2.2c-0.3-0.8-0.6-1.6-1-2.4c-1.7,0.4-3.4,0.8-4,0.9
	c-0.4-0.8-0.8-1.5-1.3-2.3c0.4-0.5,1.6-1.8,2.8-3c-0.5-0.7-1-1.4-1.6-2.1c-1.6,0.8-3,1.6-3.7,1.9c-0.6-0.6-1.2-1.3-1.8-1.8
	c0.3-0.6,1.1-2.1,1.9-3.7C48.5,7,47.8,6.5,47.1,6c-1.3,1.2-2.5,2.4-3,2.8c-0.7-0.5-1.5-0.9-2.3-1.3c0.1-0.7,0.5-2.3,0.9-4
	c-0.8-0.4-1.6-0.7-2.4-1C39.4,4,38.5,5.4,38.1,6c-0.8-0.3-1.7-0.5-2.5-0.7c-0.1-0.7-0.1-2.4-0.2-4.1c-0.7-0.1-1.5-0.2-2.3-0.3
	c-0.1,0-0.2,0-0.3,0c-0.5,1.7-1,3.3-1.2,3.9c-0.4,0-0.9,0-1.3,0s-0.9,0-1.3,0c-0.2-0.6-0.7-2.2-1.2-3.9c-0.1,0-0.2,0-0.3,0
	C26.7,1,26,1.1,25.2,1.2c0,1.8-0.1,3.4-0.2,4.1c-0.9,0.2-1.7,0.4-2.5,0.7c-0.4-0.5-1.3-2-2.2-3.5c-0.8,0.3-1.6,0.6-2.4,1
	c0.4,1.7,0.8,3.4,0.9,4c-0.8,0.4-1.5,0.8-2.3,1.3c-0.5-0.4-1.8-1.6-3-2.8c-0.7,0.5-1.4,1-2.1,1.6c0.8,1.6,1.6,3,1.9,3.7
	c-0.6,0.6-1.3,1.2-1.8,1.8c-0.6-0.3-2.1-1.1-3.7-1.9c-0.6,0.7-1.1,1.4-1.6,2.1c1.2,1.3,2.4,2.5,2.8,3c-0.5,0.7-0.9,1.5-1.3,2.3
	c-0.7-0.1-2.3-0.5-4-0.9c-0.4,0.8-0.7,1.6-1,2.4c1.5,0.9,2.9,1.8,3.5,2.2c-0.7,0.7-1,1.6-1.2,2.4c-0.7,0.1-2.4,0.1-4.1,0.2
	c-0.1,0.7-0.2,1.5-0.3,2.3c0,0.1,0,0.2,0,0.3c1.7,0.5,3.3,1,3.9,1.2c0,0.4,0,0.9,0,1.3s0,0.9,0,1.3c-0.6,0.2-2.2,0.7-3.9,1.2
	c0,0.1,0,0.2,0,0.3c0.1,0.8,0.2,1.5,0.3,2.3c1.8,0,3.4,0.1,4.1,0.2c0.2,0.9,0.4,1.7,0.7,2.5c-0.5,0.4-2,1.3-3.5,2.2
	c0.3,0.8,0.6,1.6,1,2.4c1.7-0.4,3.4-0.8,4-0.9C7.6,42.3,8,43,8.5,43.8c-0.4,0.5-1.6,1.8-2.8,3c0.5,0.7,1,1.4,1.6,2.1
	c1.6-0.8,3-1.6,3.7-1.9c0.6,0.6,1.2,1.3,1.8,1.8c-0.3,0.6-1.1,2.1-1.9,3.7c0.7,0.6,1.4,1.1,2.1,1.6c1.3-1.2,2.5-2.4,3-2.8
	c0.7,0.5,1.5,0.9,2.3,1.3c-0.1,0.7-0.5,2.3-0.9,4c0.8,0.4,1.6,0.7,2.4,1c0.9-1.5,1.8-2.9,2.2-3.5c0.8,0.3,1.7,0.5,2.5,0.7
	c0.1,0.7,0.1,2.4,0.2,4.1c0.7,0.1,1.5,0.2,2.3,0.3c0.1,0,0.2,0,0.3,0c0.5-1.7,1-3.3,1.2-3.9c0.4,0,0.9,0,1.3,0s0.9,0,1.3,0
	c0.2,0.6,0.7,2.2,1.2,3.9c0.1,0,0.2,0,0.3,0c0.8-0.1,1.5-0.2,2.3-0.3c0-1.8,0.1-3.4,0.2-4.1c0.9-0.2,1.7-0.4,2.5-0.7
	c0.4,0.5,1.3,2,2.2,3.5c0.8-0.3,1.6-0.6,2.4-1c-0.4-1.7-0.8-3.4-0.9-4c0.8-0.4,1.5-0.8,2.3-1.3c0.5,0.4,1.8,1.6,3,2.8
	c0.7-0.5,1.4-1,2.1-1.6c-0.8-1.6-1.6-3.1-1.9-3.7c0.6-0.6,1.3-1.2,1.8-1.8c0.6,0.3,2.1,1.1,3.7,1.9c0.6-0.7,1.1-1.4,1.6-2.1
	c-1.2-1.3-2.4-2.5-2.8-3c0.5-0.7,0.9-1.5,1.3-2.3c0.7,0.1,2.3,0.5,4,0.9c0.4-0.8,0.7-1.6,1-2.4c-1.5-0.9-2.9-1.8-3.5-2.2
	c0.3-0.8,0.5-1.7,0.7-2.5c0.7-0.1,2.4-0.1,4.1-0.2c0.1-0.7,0.2-1.5,0.3-2.3c0-0.1,0-0.2,0-0.3c-1.7-0.5-3.3-1-3.9-1.2
	C55.6,31,55.6,30.5,55.6,30.1z M32.5,36c-0.8,0.3-1.6,0.5-2.5,0.5s-1.7-0.2-2.5-0.5c-1.5-0.7-2.7-1.9-3.4-3.4
	c-0.3-0.8-0.5-1.6-0.5-2.5s0.2-1.7,0.5-2.5c0.6-1.5,1.9-2.7,3.4-3.4c0.8-0.3,1.6-0.5,2.5-0.5s1.7,0.2,2.5,0.5
	c1.5,0.6,2.8,1.9,3.4,3.4c0.3,0.8,0.5,1.6,0.5,2.5s-0.2,1.7-0.5,2.5C35.3,34.1,34.1,35.3,32.5,36z M32.7,50.6
	c-0.7,0.7-1.6,1.2-2.6,1.2l0,0l0,0c-1,0-1.9-0.4-2.6-1.2c-0.7-0.7-1-1.7-0.8-2.7l0.4-2.8l0.8-6.4c0.8,0.2,1.5,0.3,2.3,0.3
	s1.5-0.1,2.3-0.3l0.8,6.4l0.4,2.8C33.6,48.9,33.3,49.9,32.7,50.6z M34.1,15.1L34,15.4l-3.2,5.8c-0.2,0-0.5,0-0.7,0s-0.5,0-0.7,0
	l-3.2-5.8L26,15.1c-0.8-1.4-0.8-3.1,0.1-4.5c0.8-1.4,2.3-2.3,3.9-2.2l0,0l0,0c1.6,0,3.1,0.9,3.9,2.2C34.8,12,34.8,13.7,34.1,15.1z
	 M36.3,16.1l1.4-2.5c0.5-0.9,1.3-1.5,2.3-1.7s2,0,2.8,0.6l0,0l0,0c0.8,0.6,1.3,1.5,1.4,2.5c0.1,1-0.2,2-0.9,2.7l-1.9,2.1L37,24.4
	c-0.5-0.6-1.1-1.1-1.7-1.6s-1.3-0.8-2-1.1L36.3,16.1z M26.8,21.7c-0.7,0.3-1.4,0.7-2,1.1c-0.6,0.5-1.2,1-1.7,1.6l-4.4-4.7l-1.9-2
	c-0.7-0.7-1-1.7-0.9-2.7s0.6-1.9,1.4-2.5s1.8-0.8,2.8-0.6s1.8,0.8,2.3,1.7l1.3,2.5L26.8,21.7z M17,21.6l0.2,0.2l4.6,4.8
	c-0.1,0.2-0.2,0.4-0.2,0.6c-0.1,0.2-0.1,0.4-0.2,0.7l-6.5,1.2l-0.3,0.1c-1.6,0.3-3.2-0.3-4.3-1.5s-1.4-2.9-0.9-4.4c0,0,0,0,0-0.1
	l0,0c0.5-1.5,1.8-2.7,3.3-3C14.3,20,15.9,20.5,17,21.6z M9.7,33.9c0.5-0.9,1.4-1.5,2.3-1.6l2.8-0.5l6.3-1.2c0,0.8,0.2,1.6,0.4,2.3
	c0.2,0.7,0.6,1.4,1,2.1l-5.8,2.7l-2.6,1.2c-0.9,0.4-1.9,0.4-2.8,0.1c-0.9-0.4-1.6-1.2-1.9-2.1l0,0l0,0C9.1,35.8,9.2,34.8,9.7,33.9z
	 M15.4,43.5c0.2-1.6,1.1-3,2.6-3.7l0.3-0.1l6-2.8c0.2,0.1,0.4,0.3,0.5,0.4c0.2,0.1,0.4,0.3,0.6,0.4l-0.8,6.6v0.3
	c-0.2,1.6-1.2,3-2.7,3.6s-3.2,0.4-4.5-0.5c0,0,0,0-0.1,0l0,0C15.9,46.7,15.2,45.1,15.4,43.5z M35.3,37.3c0.2-0.1,0.4-0.3,0.5-0.4
	l6,2.8l0.3,0.1c1.5,0.7,2.4,2.1,2.6,3.7c0.2,1.6-0.6,3.2-1.9,4.1c0,0,0,0-0.1,0l0,0c-1.3,0.9-3,1.1-4.5,0.5s-2.5-2-2.7-3.6v-0.3
	l-0.8-6.6C34.9,37.6,35.1,37.4,35.3,37.3z M43.4,37.7L37.6,35c0.4-0.7,0.8-1.4,1-2.1c0.2-0.7,0.4-1.5,0.4-2.3l6.3,1.2l2.8,0.5
	c1,0.2,1.8,0.8,2.3,1.6c0.5,0.9,0.6,1.9,0.3,2.8l0,0l0,0c-0.3,0.9-1,1.7-1.9,2.1c-0.9,0.4-2,0.4-2.9,0L43.4,37.7z M49.8,27.8
	c-1.1,1.2-2.7,1.8-4.3,1.5l-0.3-0.1L38.7,28c-0.1-0.2-0.1-0.4-0.2-0.7c-0.1-0.2-0.1-0.4-0.2-0.6l4.5-4.8l0.2-0.2
	c1.1-1.2,2.7-1.7,4.3-1.3c1.6,0.4,2.8,1.5,3.3,3c0,0,0,0,0,0.1l0,0C51.2,24.9,50.9,26.6,49.8,27.8z"/>
</svg>
